<svg viewBox="0 0 24 24" xmlns="http://www.w3.org/2000/svg" fill="#888888"><g id="SVGRepo_bgCarrier" stroke-width="0"></g><g id="SVGRepo_tracerCarrier" stroke-linecap="round" stroke-linejoin="round"></g><g id="SVGRepo_iconCarrier"> <g> <path fill="none" d="M0 0h24v24H0z"></path> <path d="M7.105 15.21A3.001 3.001 0 1 1 5 15.17V8.83a3.001 3.001 0 1 1 2 0V12c.836-.628 1.874-1 3-1h4a3.001 3.001 0 0 0 2.895-2.21 3.001 3.001 0 1 1 2.032.064A5.001 5.001 0 0 1 14 13h-4a3.001 3.001 0 0 0-2.895 2.21zM6 17a1 1 0 1 0 0 2 1 1 0 0 0 0-2zM6 5a1 1 0 1 0 0 2 1 1 0 0 0 0-2zm12 0a1 1 0 1 0 0 2 1 1 0 0 0 0-2z"></path> </g> </g></svg>